<svg enable-background="new 0 0 65 65" viewBox="0 0 65 65" xmlns="http://www.w3.org/2000/svg"><g stroke="#040d0b" stroke-miterlimit="10"><path d="m62.8 14.6-12.2-12.1c-.5-.5-1.2-.8-1.9-.8s-1.4.3-1.9.8l-1.4 1.5c-.5.5-.8 1.2-.8 1.9s.3 1.4.8 1.9l5.3 5.3-2.3 2.3-5.3-5.4c-.5-.5-1.2-.8-1.9-.8s-1.4.3-1.9.8l-21.5 21.6c-.5.5-.8 1.2-.8 1.9s.3 1.4.8 1.9l2.4 2.4-2.3 2.2c-.5.5-.8 1.2-.8 1.9s.3 1.4.8 1.9l1 1-17.1 17.1c-.4.4-.4 1.1 0 1.6.2.2.5.3.8.3s.6-.1.8-.3l17.1-17.1 1 1c.5.5 1.2.8 1.9.8s1.4-.3 1.9-.8l2.3-2.3 2.4 2.4c.5.5 1.2.8 1.9.8s1.4-.3 1.9-.8c0 0 1.1-1.1 1.5-1.5.8-.8-1-2.1-1.5-1.5-.4.5-1.5 1.4-1.5 1.4-.1.1-.2.1-.3.1s-.2 0-.3-.1l-12.4-12.1c-.2-.2-.2-.5 0-.6l4.8-4.8 1.3 1.3c.2.2.5.3.8.3s.6-.1.8-.3c.4-.4.4-1.1 0-1.6l-1.3-1.3 2.4-2.4 1.3 1.3c.2.2.5.3.8.3s.6-.1.8-.3c.4-.4.4-1.1 0-1.5l-1.3-1.3 7.5-7.5 12.9 12.6s-1.1 1.1-1.4 1.5c-.5.5.9 1.7 1.4 1.3 1.3-1.2 5.2-4.9 5.2-4.9 1-1 1-2.7 0-3.7l-5.3-5.3 2.3-2.3 5.3 5.3c.5.5 1.2.8 1.9.8s1.4-.3 1.9-.8l1.5-1.5c.9-1 .9-2.7-.1-3.8zm-36.8 28.9-2.3 2.3c-.1.1-.2.1-.3.1s-.2 0-.3-.1l-3.6-3.6c-.1-.1-.1-.2-.1-.3s0-.2.1-.3l2.3-2.3zm27.7-19.8c.2.2.2.5 0 .6l-2.1 2.1-12.8-12.7 2.1-2.1c.2-.2.5-.2.6 0zm7.5-6.9-1.5 1.5c-.1.1-.2.1-.3.1s-.2 0-.3-.1l-12.2-12.1c-.1-.1-.1-.2-.1-.3s0-.2.1-.3l1.5-1.6c.1-.1.2-.1.3-.1s.2 0 .3.1l12.2 12.2c.2.2.2.5 0 .6z" stroke-width=".5"/><g fill="none" stroke-linecap="round" stroke-linejoin="bevel" stroke-width="2.5168"><path d="m56.1 50.5c.5 2.4-2.1 2.9-3.2 2.6-1.2-.3-3.5-.4-3.5-.4s-2.4.1-3.5.4c-1.2.3-3.8-.2-3.2-2.6.5-2.4 2.8-2.3 3.5-5.5.6-3.2 3.3-3 3.3-3s2.7-.2 3.3 3c.5 3.2 2.8 3.1 3.3 5.5z"/><path d="m52.8 39.2c1.4.4 3-.7 3.5-2.5s-.2-3.6-1.6-4-3 .7-3.5 2.5.2 3.6 1.6 4z"/><path d="m59.9 40.7c-1.4-.6-3 .4-3.7 2.1s-.2 3.6 1.2 4.1c1.4.6 3-.4 3.7-2.1s.1-3.5-1.2-4.1z"/><path d="m45.9 39.2c1.4-.4 2.1-2.2 1.6-4s-2.1-2.9-3.5-2.5-2.1 2.2-1.6 4 2.1 2.9 3.5 2.5z"/><path d="m41.2 47c1.4-.6 1.9-2.4 1.2-4.1s-2.4-2.7-3.7-2.1c-1.4.6-1.9 2.4-1.2 4.1s2.4 2.6 3.7 2.1z"/></g></g></svg>