<svg enable-background="new -265.2 388.8 64 64" viewBox="-265.2 388.8 64 64" xmlns="http://www.w3.org/2000/svg" xmlns:xlink="http://www.w3.org/1999/xlink"><clipPath id="a"><path d="m-265 393.8h63.5v54.1h-63.5z"/></clipPath><clipPath id="b"><path d="m-265 393.8h63.5v54.1h-63.5z"/></clipPath><clipPath id="c"><path d="m-271.8 354h63.5v54.1h-63.5z" transform="matrix(.2772 -.9608 .9608 .2772 -539.5993 44.7495)"/></clipPath><clipPath id="d"><path d="m-241.3 400h63.5v54.1h-63.5z" transform="matrix(-.3779 .9259 -.9259 -.3779 106.6077 782.376)"/></clipPath><clipPath id="e"><path d="m-284.5 374.8h63.5v54.1h-63.5z" transform="matrix(-.2773 -.9608 .9608 -.2773 -709.0136 270.4463)"/></clipPath><clipPath id="f"><path d="m-279.8 386.8h63.5v54.1h-63.5z" transform="matrix(-.378 -.9258 .9258 -.378 -725.0039 340.5775)"/></clipPath><g fill="none" stroke="#000100" stroke-miterlimit="10" stroke-width="2.517"><path clip-path="url(#a)" d="m-206.8 422.9c-3.6.2-8.3 3.8-12.9 5.9-5.6 2.6-14.3.5-14.3.5 1.3-.6 6.8-1.9 7.9-2.4 5.9-2.6 5.4-7.9 2.6-7.9-3.7.1-5.8 1-13.2 2-5.6.8-12.2.5-15.3 1.7-4.6 1.7-11.7 13.1-11.7 13.1l11.1 10.8s6.9-6.8 10.2-6.8c7.6 0 7.9-.1 15-.5 3-.2 3.6-.3 5.4-.9 9.2-3.1 19-11.4 19.2-12.4.4-2.2-2.1-3.2-4-3.1z" stroke-linejoin="round"/><g stroke-linecap="round" stroke-linejoin="bevel"><path clip-path="url(#b)" d="m-219.3 413c.5 2.4-2.1 2.9-3.2 2.6-1.2-.3-3.5-.4-3.5-.4s-2.4.1-3.5.4c-1.2.3-3.8-.2-3.2-2.6.5-2.4 2.8-2.3 3.5-5.5.6-3.2 3.3-3 3.3-3s2.7-.2 3.3 3c.5 3.2 2.8 3.1 3.3 5.5z"/><ellipse clip-path="url(#c)" cx="-221.7" cy="398.3" rx="2.7" ry="3.4" transform="matrix(.9608 .2772 -.2772 .9608 101.7332 77.0632)"/><ellipse clip-path="url(#d)" cx="-216.8" cy="406.3" rx="2.7" ry="3.4" transform="matrix(-.9259 -.3779 .3779 -.9259 -571.0617 700.5001)"/><ellipse clip-path="url(#e)" cx="-230.4" cy="398.4" rx="2.7" ry="3.4" transform="matrix(.9608 -.2773 .2773 .9608 -119.5101 -48.2743)"/><ellipse clip-path="url(#f)" cx="-235.5" cy="406.3" rx="2.7" ry="3.4" transform="matrix(.9258 -.378 .378 .9258 -171.0348 -58.8679)"/></g></g></svg>