<svg enable-background="new 0 0 64 64" viewBox="0 0 64 64" xmlns="http://www.w3.org/2000/svg" xmlns:xlink="http://www.w3.org/1999/xlink"><clipPath id="a"><path d="m8.3 1.6h47.4v60.8h-47.4z"/></clipPath><path clip-path="url(#a)" d="m19 26.9c1.5.9 3.1 1.3 4.8 1.3s3.3-.4 4.8-1.3c3.4-2 5.2-5.8 5.2-10.6 0-.2 0-1.7 0-1.7v-8.4c0-2.5-2.1-4.6-4.6-4.6h-10.9c-2.5 0-4.5 2.1-4.5 4.6v7.6s-.1 2.8 0 3.3c.2 4.5 2 7.9 5.2 9.8m8.2-2.4c-2.1 1.2-4.7 1.2-6.8 0-2.4-1.4-3.8-4.2-3.9-7.8h14.5c-.1 3.5-1.5 6.4-3.8 7.8m-10.6-18.3c0-1 .8-1.9 1.8-1.9h10.9c1 0 1.9.8 1.9 1.9v7.7h-14.6zm10.3 3c0 .8-.6 1.4-1.4 1.4h-.5v.4c0 .8-.6 1.4-1.4 1.4s-1.4-.6-1.4-1.4v-.5h-.5c-.8 0-1.4-.6-1.4-1.4s.6-1.4 1.4-1.4h.5v-.4c0-.8.6-1.4 1.4-1.4s1.4.6 1.4 1.4v.5h.5c.8 0 1.4.6 1.4 1.4m3.9 48.5c0 .8-.6 1.4-1.4 1.4h-19.7c-.4 0-.8-.2-1.1-.5s-.4-.7-.3-1.1l3.3-17.5c.8-4.6 4.6-7.9 9.8-8.7 2.6-.4 5.3-.1 7.7.8 2.6 1 4.6 2.7 5.9 4.9.4.7.1 1.5-.6 1.9s-1.5.1-1.9-.6c-2.1-3.8-7-4.9-10.7-4.3-4.1.6-6.9 3.1-7.5 6.5l-2.9 15.9h18.2c.6 0 1.2.6 1.2 1.3"/><g style="fill:none;stroke:#000100;stroke-width:2.517;stroke-linecap:round;stroke-linejoin:bevel;stroke-miterlimit:10"><path clip-path="url(#a)" d="m49.2 58.4c.5 2.4-2.1 2.9-3.2 2.6-1.2-.3-3.5-.4-3.5-.4s-2.4.1-3.5.4c-1.2.3-3.8-.2-3.2-2.6.5-2.4 2.8-2.3 3.5-5.5.6-3.2 3.3-3 3.3-3s2.7-.2 3.3 3c.5 3.2 2.8 3.1 3.3 5.5z"/><ellipse clip-path="url(#a)" cx="46.8" cy="43.8" rx="3.4" ry="2.7" transform="matrix(-.2772 .9608 -.9608 -.2772 101.9095 10.9904)"/><ellipse clip-path="url(#a)" cx="51.7" cy="51.7" rx="3.4" ry="2.7" transform="matrix(.378 -.9258 .9258 .378 -15.7639 80.0343)"/><ellipse clip-path="url(#a)" cx="38.1" cy="43.8" rx="3.4" ry="2.7" transform="matrix(.2773 .9608 -.9608 .2773 69.6303 -4.9038)"/><ellipse clip-path="url(#a)" cx="33" cy="51.7" rx="3.4" ry="2.7" transform="matrix(.378 .9258 -.9258 .378 68.4583 1.602)"/></g></svg>