<svg enable-background="new -2 4 64 64" viewBox="-2 4 64 64" xmlns="http://www.w3.org/2000/svg"><g stroke="#000100" stroke-miterlimit="10"><path d="m58.4 30.6-27.5-20.2c-.5-.4-1.3-.4-1.8 0l-27.5 20.2c-.7.5-.8 1.4-.3 2.1s1.4.8 2.1.3l26.6-19.5 26.6 19.5c.3.2.6.3.9.3.5 0 .9-.2 1.2-.6.5-.7.4-1.6-.3-2.1z" fill="#000100" stroke-width=".25"/><path d="m51.1 33.3c-.8 0-1.5.7-1.5 1.5v24h-12.1-15-12.1v-24c0-.8-.7-1.5-1.5-1.5s-1.5.7-1.5 1.5v25.5c0 .8.7 1.5 1.5 1.5h15.1 12.1 15.1c.8 0 1.5-.7 1.5-1.5v-25.5c-.1-.8-.8-1.5-1.6-1.5z" fill="#000100" stroke-width=".25"/><path d="m35.7 33.3c-3 0-4.1 1.4-5.9 3.5-1.8-2.1-2.8-3.5-5.9-3.5-3.3 0-5.4 2.2-5.4 5.5 0 1.9.9 4.1 2.8 6.1l8.5 8.6 8.5-8.6c2-2 2.8-4.1 2.8-6.1 0-3.3-2.2-5.5-5.4-5.5" fill="none" stroke-linecap="round" stroke-linejoin="round" stroke-width="3"/></g></svg>